<svg id="Layer_1_1_" enable-background="new 0 0 64 64" height="512" viewBox="0 0 64 64" width="512" xmlns="http://www.w3.org/2000/svg"><path d="m53 61v-58h-50v54c0 2.20914 1.79086 4 4 4z" fill="#50b6cf"/><path d="m53 57.00934v-38.00934c-6.53912 14.83734-25.9701 26.14594-50 28.53851v9.47083c0 2.20914 1.79086 4 4 4h41.23809c2.62997 0 4.76191-1.7909 4.76191-4z" fill="#3cadc9"/><path d="m7 61c2.20914 0 4-1.79086 4-4v-4h50v4c0 2.20914-1.79086 4-4 4z" fill="#3cadc9"/><path d="m20 8h16v5h-16z" fill="#f5a947"/><path d="m20 43h16v5h-16z" fill="#f5a947"/><path d="m37.91101 29.26715c.05274-.41595.08899-.83691.08899-1.26715s-.03625-.8512-.08899-1.26715l-2.21887-.91022c-.17145-.60681-.40918-1.18488-.71112-1.72388l.92316-2.20874c-.52008-.67181-1.12231-1.27399-1.79413-1.79407l-2.20874.9231c-.539-.30194-1.11713-.53967-1.72394-.71118l-.91022-2.21887c-.41595-.05274-.83691-.08899-1.26715-.08899s-.8512.03625-1.26715.08899l-.91022 2.21887c-.60681.17145-1.18488.40924-1.72388.71112l-2.20868-.92316c-.67181.52008-1.27405 1.12225-1.79419 1.79407l.92316 2.20886c-.30194.539-.53967 1.11707-.71118 1.72388l-2.21887.91022c-.05274.41595-.08899.83691-.08899 1.26715s.03625.85126.08899 1.26715l2.21881.91016c.17151.60681.4093 1.18488.71118 1.72388l-.92316 2.20874c.52008.67181 1.12231 1.27399 1.79407 1.79413l2.2088-.9231c.539.30188 1.11707.53961 1.72394.71118l.91022 2.21887c.41595.05274.83691.08899 1.26715.08899s.8512-.03625 1.26715-.08899l.91022-2.21887c.60681-.17145 1.18488-.40918 1.72388-.71112l2.20874.92316c.67181-.52014 1.27405-1.12231 1.79413-1.79413l-.92316-2.2088c.30194-.539.53967-1.11707.71118-1.72388zm-9.91101 2.73285c-2.20917 0-4-1.79089-4-4 0-2.20917 1.79083-4 4-4s4 1.79083 4 4c0 2.20911-1.79083 4-4 4z" fill="#e34e4b"/><g fill="#0d0f23"><path d="m61 52h-7v-49c0-.55225-.44727-1-1-1h-50c-.55273 0-1 .44775-1 1v54c0 2.75684 2.24316 5 5 5h50c2.75684 0 5-2.24316 5-5v-4c0-.55225-.44727-1-1-1zm-51 1v4c0 1.6543-1.3457 3-3 3s-3-1.3457-3-3v-53h48v48h-41c-.55273 0-1 .44775-1 1zm50 4c0 1.6543-1.3457 3-3 3h-46.00195c.6289-.83643 1.00195-1.87549 1.00195-3v-3h48z"/><path d="m23 28c0 2.75684 2.24316 5 5 5s5-2.24316 5-5-2.24316-5-5-5-5 2.24316-5 5zm8 0c0 1.6543-1.3457 3-3 3s-3-1.3457-3-3 1.3457-3 3-3 3 1.3457 3 3z"/><path d="m20 14h7v3.05664c-.13.013-.25275.02222-.39355.04004-.35742.04541-.66211.2793-.79883.61279l-.73242 1.78418c-.35156.12061-.69336.26172-1.02344.42188l-1.77637-.74268c-.33105-.13818-.71387-.08936-.99805.13232-.7373.57129-1.40039 1.23438-1.97168 1.97168-.2207.28467-.27148.66602-.13281.99854l.74316 1.77588c-.16016.32959-.30176.67188-.42285 1.02441l-1.78418.73193c-.33301.13672-.56641.44238-.6123.79932-.06641.52149-.09668.96387-.09668 1.39307s.03027.87158.09668 1.39307c.0459.35693.2793.6626.6123.79932l1.78418.73193c.12109.35205.26172.69434.42188 1.02393l-.74219 1.77588c-.13867.33252-.08789.71338.13281.99805.57129.73828 1.23438 1.40186 1.97168 1.97266.28418.22021.66699.27002.99805.13232l1.77637-.74268c.33008.16016.67188.30127 1.02344.42188l.73242 1.78418c.13672.3335.44141.56738.79883.61279.14032.01776.26337.02655.39355.03931v3.05736h-7c-.55273 0-1 .44775-1 1v5c0 .55225.44727 1 1 1h16c.55273 0 1-.44775 1-1v-5c0-.55225-.44727-1-1-1h-7v-3.05737c.13019-.01276.25323-.02155.39355-.03931.35742-.04541.66211-.2793.79883-.61279l.73242-1.78418c.35254-.12061.69434-.26172 1.02344-.42188l1.77637.74268c.33008.1377.71289.08789.99805-.13232.7373-.5708 1.40039-1.23438 1.97168-1.97266.2207-.28467.27148-.66602.13281-.99805l-.74316-1.77588c.16016-.3291.30176-.67139.42285-1.02393l1.78418-.73193c.33301-.13672.56641-.44238.6123-.79932.06641-.52148.09668-.96386.09668-1.39306s-.03027-.87158-.09668-1.39307c-.0459-.35693-.2793-.6626-.6123-.79932l-1.78418-.73193c-.12109-.35205-.26172-.69434-.42188-1.02393l.74219-1.77588c.13867-.33252.08789-.71338-.13281-.99805-.57129-.73828-1.23438-1.40186-1.97168-1.97266-.28516-.22168-.66797-.27051-.99805-.13232l-1.77637.74268c-.33008-.16016-.67188-.30127-1.02344-.42188l-.73242-1.78418c-.13672-.3335-.44141-.56738-.79883-.61279-.1408-.01781-.26355-.02703-.39355-.04003v-3.05664h7c.55273 0 1-.44775 1-1v-5c0-.55225-.44727-1-1-1h-16c-.55273 0-1 .44775-1 1v5c0 .55225.44727 1 1 1zm15 33h-14v-3h14zm-5.09473-25.73047c.5332.15137 1.04004.36084 1.50781.62207.26855.1499.58984.16748.87402.05029l1.65234-.69092c.28613.25244.55664.52344.80957.81006l-.69043 1.65186c-.11816.28369-.09961.60596.0498.87402.26172.46631.4707.97363.62207 1.5083.08301.29541.29785.53613.58203.65283l1.66504.68311c.01564.2002.02248.38721.02248.56885s-.00684.36865-.02246.56885l-1.66504.68311c-.28418.1167-.49902.35742-.58203.65283-.15234.53516-.36133 1.04248-.62207 1.50684-.15039.26855-.16895.5918-.05078.87549l.69141 1.65186c-.25293.28711-.52344.55762-.80957.81006l-1.65234-.69092c-.28418-.11768-.60645-.09961-.875.05078-.46484.26074-.97168.46973-1.50684.62158-.2959.0835-.53613.29834-.65234.58252l-.68359 1.66504c-.40039.0293-.73828.0293-1.13867 0l-.68359-1.66504c-.11621-.28418-.35645-.49902-.65234-.58252-.5332-.15137-1.04004-.36084-1.50781-.62207-.26855-.1499-.58984-.16797-.87402-.05029l-1.65234.69092c-.28613-.25244-.55664-.52344-.80957-.81006l.69043-1.65186c.11816-.28369.09961-.60596-.0498-.87402-.26172-.46631-.4707-.97363-.62207-1.5083-.08301-.29541-.29785-.53613-.58203-.65283l-1.66504-.68311c-.01566-.20021-.0225-.38722-.0225-.56886s.00684-.36865.02246-.56885l1.66504-.68311c.28418-.1167.49902-.35742.58203-.65283.15234-.53516.36133-1.04248.62207-1.50684.15039-.26855.16895-.59131.05078-.87549l-.69141-1.65234c.25293-.28662.52344-.55713.80957-.80957l1.65234.69092c.28418.11719.60547.09961.87402-.05029.46777-.26123.97461-.4707 1.50781-.62207.2959-.0835.53613-.29834.65234-.58252l.68359-1.66504c.40039-.0293.73828-.0293 1.13867 0l.68359 1.66504c.11624.28418.35648.49903.65237.58252zm-8.90527-12.26953h14v3h-14z"/><path d="m39.60645 20.17072c1.5548 2.29449 2.39355 4.9967 2.39355 7.82928 0 3.73926-1.45605 7.25488-4.10059 9.89941l1.41406 1.41406c3.02247-3.02197 4.68653-7.04003 4.68653-11.31347 0-3.51575-1.1424-6.84888-3.22479-9.60645h2.0744v-2h-4.24316c-.55273 0-1 .44775-1 1v4.24268h2z"/><path d="m13.15039 37.60645v2h4.24316c.55273 0 1-.44775 1-1v-4.24268h-2v1.46545c-1.55468-2.29437-2.39355-4.9967-2.39355-7.82922 0-3.73926 1.45605-7.25488 4.10059-9.89941l-1.41406-1.41406c-3.02247 3.02197-4.68653 7.04003-4.68653 11.31347 0 3.51575 1.1424 6.84888 3.22479 9.60645z"/></g></svg>